<svg width="100" height="100" viewBox="0 0 100 100" version="1.1" xmlns="http://www.w3.org/2000/svg" xmlns:xlink="http://www.w3.org/1999/xlink">
<title>contributor</title>
<desc>Created using Figma</desc>
<g id="Canvas" transform="translate(1687 -2905)">
<rect x="-1827" y="2905" width="100" height="100" fill="#FFFFFF" opacity="0"/>
<clipPath id="clip-0" clip-rule="evenodd">
<path d="M -1687 2905L -1587 2905L -1587 3005L -1687 3005L -1687 2905Z" fill="#FFFFFF"/>
</clipPath>
<g id="contributor" clip-path="url(#clip-0)">
<g id="network">
<g id="Group">
<g id="Vector">
<use xlink:href="#path0_fill" transform="translate(-1644.03 2972.46)" fill="#FFFFFF"/>
</g>
<g id="Vector">
<use xlink:href="#path1_fill" transform="translate(-1648.25 2987.87)" fill="#FFFFFF"/>
</g>
<g id="Vector">
<use xlink:href="#path0_fill" transform="translate(-1644.03 2911)" fill="#FFFFFF"/>
</g>
<g id="Vector">
<use xlink:href="#path2_fill" transform="translate(-1648.25 2926.41)" fill="#FFFFFF"/>
</g>
<g id="Vector">
<use xlink:href="#path3_fill" transform="translate(-1610.28 2941.73)" fill="#FFFFFF"/>
</g>
<g id="Vector">
<use xlink:href="#path4_fill" transform="translate(-1614.5 2957.14)" fill="#FFFFFF"/>
</g>
<g id="Vector">
<use xlink:href="#path0_fill" transform="translate(-1677.78 2941.73)" fill="#FFFFFF"/>
</g>
<g id="Vector">
<use xlink:href="#path5_fill" transform="translate(-1682 2957.14)" fill="#FFFFFF"/>
</g>
<g id="Vector">
<use xlink:href="#path6_fill" transform="translate(-1669.26 2971.06)" fill="#FFFFFF"/>
</g>
<g id="Vector">
<use xlink:href="#path7_fill" transform="translate(-1624.61 2971.06)" fill="#FFFFFF"/>
</g>
<g id="Vector">
<use xlink:href="#path8_fill" transform="translate(-1627.15 2921.21)" fill="#FFFFFF"/>
</g>
<g id="Vector">
<use xlink:href="#path9_fill" transform="translate(-1668.44 2921.21)" fill="#FFFFFF"/>
</g>
</g>
</g>
</g>
</g>
<defs>
<path id="path0_fill" d="M 7.03126 15.3651C 10.9083 15.3651 14.0625 12.232 14.0625 8.38095L 14.0625 6.98413C 14.0625 3.13308 10.9083 0 7.03126 0C 3.15422 0 0 3.13308 0 6.98413L 0 8.38095C 0 12.232 3.15422 15.3651 7.03126 15.3651ZM 2.81251 6.98413C 2.81251 4.6736 4.70497 2.79365 7.03126 2.79365C 9.35756 2.79365 11.25 4.6736 11.25 6.98413L 11.25 8.38095C 11.25 10.6915 9.35756 12.5714 7.03126 12.5714C 4.70497 12.5714 2.81251 10.6915 2.81251 8.38095L 2.81251 6.98413Z"/>
<path id="path1_fill" d="M 16.8877 -1.15095e-06L 15.6941 -1.15095e-06C 15.2058 -1.15095e-06 14.7525 0.251603 14.4965 0.664714C 13.6763 1.98873 12.4931 2.7479 11.25 2.7479C 10.0069 2.7479 8.82371 1.98873 8.00351 0.664714C 7.74757 0.251603 7.29423 -1.15095e-06 6.80591 -1.15095e-06L 5.61235 -1.15095e-06C 2.45162 -1.15095e-06 0 2.9789 0 5.54156L 0 8.56708C 0 9.97962 1.15699 11.1289 2.57907 11.1289L 19.9268 11.1289C 21.3455 11.1289 22.4999 9.98224 22.4999 8.57284L 22.4999 5.54156C 22.4999 4.32562 21.9296 2.96476 20.9744 1.90161C 19.8728 0.675368 18.4214 -1.15095e-06 16.8877 -1.15095e-06ZM 19.6875 8.33521L 2.81251 8.33521L 2.81251 5.54156C 2.81251 4.598 3.90288 2.79365 5.61235 2.79365L 6.06376 2.79365C 7.39443 4.54998 9.24822 5.54156 11.25 5.54156C 13.2518 5.54156 15.1056 4.54998 16.4361 2.79365L 16.8875 2.79365C 18.597 2.79365 19.6874 4.598 19.6874 5.54156L 19.6874 8.33521L 19.6875 8.33521Z"/>
<path id="path2_fill" d="M 16.8877 1.81168e-07L 15.6941 1.81168e-07C 15.2058 1.81168e-07 14.7525 0.251603 14.4965 0.664714C 13.6763 1.98856 12.4931 2.7479 11.25 2.7479C 10.0069 2.7479 8.82371 1.98856 8.00351 0.664714C 7.74757 0.251603 7.29423 1.81168e-07 6.80591 1.81168e-07L 5.61235 1.81168e-07C 2.45162 1.81168e-07 0 2.9789 0 5.54156L 0 8.56708C 0 9.97962 1.15699 11.1289 2.57907 11.1289L 19.9268 11.1289C 21.3455 11.1289 22.4999 9.98224 22.4999 8.57284L 22.4999 5.54156C 22.4999 4.32562 21.9296 2.96476 20.9744 1.9016C 19.8728 0.675365 18.4214 1.81168e-07 16.8877 1.81168e-07ZM 19.6875 8.33521L 2.81251 8.33521L 2.81251 5.54156C 2.81251 4.598 3.90288 2.79365 5.61235 2.79365L 6.06376 2.79365C 7.39443 4.54998 9.24822 5.54156 11.25 5.54156C 13.2518 5.54156 15.1056 4.54998 16.4361 2.79365L 16.8875 2.79365C 18.597 2.79365 19.6874 4.598 19.6874 5.54156L 19.6874 8.33521L 19.6875 8.33521Z"/>
<path id="path3_fill" d="M 0 6.98413L 0 8.38095C 0 12.232 3.15422 15.3651 7.03126 15.3651C 10.9083 15.3651 14.0625 12.232 14.0625 8.38095L 14.0625 6.98413C 14.0625 3.13308 10.9083 0 7.03126 0C 3.15422 0 0 3.13308 0 6.98413ZM 2.81251 6.98413C 2.81251 4.6736 4.70497 2.79365 7.03126 2.79365C 9.35756 2.79365 11.25 4.6736 11.25 6.98413L 11.25 8.38095C 11.25 10.6915 9.35756 12.5714 7.03126 12.5714C 4.70497 12.5714 2.81251 10.6915 2.81251 8.38095L 2.81251 6.98413Z"/>
<path id="path4_fill" d="M 20.9746 1.90161C 19.8728 0.675368 18.4216 -1.15095e-06 16.8877 -1.15095e-06L 15.6941 -1.15095e-06C 15.2058 -1.15095e-06 14.7525 0.251603 14.4965 0.664714C 13.6763 1.98856 12.4931 2.7479 11.25 2.7479C 10.0069 2.7479 8.82371 1.98856 8.00351 0.664714C 7.74757 0.251603 7.29423 -1.15095e-06 6.80591 -1.15095e-06L 5.61236 -1.15095e-06C 2.45163 -1.15095e-06 0 2.9789 0 5.54156L 0 8.56708C 0 9.97962 1.15699 11.1289 2.57907 11.1289L 19.9268 11.1289C 21.3455 11.1289 22.4999 9.98224 22.4999 8.57284L 22.4999 5.54156C 22.5 4.32562 21.9298 2.96476 20.9746 1.90161ZM 19.6875 8.33521L 2.81251 8.33521L 2.81251 5.54156C 2.81251 4.598 3.90288 2.79365 5.61236 2.79365L 6.06376 2.79365C 7.39443 4.54998 9.24822 5.54156 11.25 5.54156C 13.2518 5.54156 15.1056 4.54998 16.4361 2.79365L 16.8875 2.79365C 18.597 2.79365 19.6874 4.598 19.6874 5.54156L 19.6874 8.33521L 19.6875 8.33521Z"/>
<path id="path5_fill" d="M 22.5 8.57284L 22.5 5.54156C 22.5 4.32562 21.9298 2.96476 20.9746 1.90161C 19.8728 0.675368 18.4216 -1.15095e-06 16.8877 -1.15095e-06L 15.6941 -1.15095e-06C 15.2058 -1.15095e-06 14.7525 0.251603 14.4965 0.664714C 13.6763 1.98856 12.4931 2.7479 11.25 2.7479C 10.0069 2.7479 8.82371 1.98856 8.00351 0.664714C 7.74757 0.251603 7.29423 -1.15095e-06 6.80591 -1.15095e-06L 5.61235 -1.15095e-06C 2.45163 -1.15095e-06 0 2.9789 0 5.54156L 0 8.56708C 0 9.97962 1.15699 11.1289 2.57907 11.1289L 19.9268 11.1289C 21.3457 11.1289 22.5 9.98224 22.5 8.57284ZM 19.6875 8.33521L 2.81251 8.33521L 2.81251 5.54156C 2.81251 4.598 3.90288 2.79365 5.61235 2.79365L 6.06376 2.79365C 7.39443 4.54998 9.24822 5.54156 11.25 5.54156C 13.2518 5.54156 15.1056 4.54998 16.4361 2.79365L 16.8875 2.79365C 18.597 2.79365 19.6874 4.598 19.6874 5.54156L 19.6874 8.33521L 19.6875 8.33521Z"/>
<path id="path6_fill" d="M 19.0103 15.4797C 12.0819 12.5401 6.26793 7.30025 2.63962 0.725567C 2.26626 0.0491539 1.41179 -0.198609 0.730635 0.172248C 0.0494809 0.543105 -0.199953 1.39203 0.173407 2.06844C 4.103 9.18946 10.4006 14.8648 17.9056 18.0488C 18.0857 18.1253 18.2729 18.1614 18.4573 18.1614C 19.0035 18.1614 19.5231 17.8433 19.7513 17.3129C 20.0562 16.6035 19.7245 15.7828 19.0103 15.4797Z"/>
<path id="path7_fill" d="M 19.1304 0.17233C 18.4494 -0.198702 17.5946 0.0492305 17.2212 0.725643C 13.5934 7.29875 7.78068 12.5377 0.854182 15.4772C 0.139981 15.7801 -0.191717 16.6011 0.11344 17.3105C 0.341605 17.8409 0.861038 18.1589 1.40737 18.1589C 1.59159 18.1589 1.77897 18.1228 1.95915 18.0461C 9.46221 14.862 15.7582 9.18779 19.6874 2.06852C 20.061 1.39211 19.8115 0.543013 19.1304 0.17233Z"/>
<path id="path8_fill" d="M 0.956839 2.72057C 8.44953 5.23363 14.8531 10.3259 18.9878 17.0593C 19.2527 17.4908 19.7155 17.7289 20.1896 17.7289C 20.4391 17.7289 20.6918 17.6629 20.9205 17.5245C 21.5836 17.1227 21.7931 16.2631 21.3888 15.6045C 16.9108 8.31188 9.9739 2.79635 1.85649 0.0737581C 1.12102 -0.172956 0.32262 0.219377 0.0742401 0.95044C -0.174139 1.68115 0.221017 2.47385 0.956839 2.72057Z"/>
<path id="path9_fill" d="M 0.674131 17.5257C 0.902823 17.6643 1.15542 17.7303 1.40503 17.7303C 1.87911 17.7303 2.34212 17.4921 2.60685 17.0607C 6.74264 10.3259 13.1476 5.23324 20.6422 2.7207C 21.3782 2.47399 21.7734 1.68146 21.525 0.950576C 21.2764 0.219512 20.478 -0.17317 19.7429 0.0738932C 11.6234 2.79596 4.68494 8.31202 0.205848 15.6061C -0.198449 16.2643 0.0110826 17.1239 0.674131 17.5257Z"/>
</defs>
</svg>
