<svg width="100" height="100" viewBox="0 0 100 100" version="1.1" xmlns="http://www.w3.org/2000/svg" xmlns:xlink="http://www.w3.org/1999/xlink">
<title>owner</title>
<desc>Created using Figma</desc>
<g id="Canvas" transform="translate(1827 -2905)">
<rect x="-1827" y="2905" width="100" height="100" fill="#FFFFFF" opacity="0"/>
<clipPath id="clip-0" clip-rule="evenodd">
<path d="M -1827 2905L -1727 2905L -1727 3005L -1827 3005L -1827 2905Z" fill="#FFFFFF"/>
</clipPath>
<g id="owner" clip-path="url(#clip-0)">
<g id="network(1)">
<g id="Group">
<g id="Vector">
<use xlink:href="#path0_fill" transform="translate(-1801.96 2911)" fill="#FFFFFF"/>
</g>
<g id="Vector">
<use xlink:href="#path1_fill" transform="translate(-1819 2968.17)" fill="#FFFFFF"/>
</g>
</g>
</g>
</g>
</g>
<defs>
<path id="path0_fill" d="M 2.7886 35.9332C 2.7886 42.1818 5.07658 48.5096 9.06571 53.2944C 13.2607 58.326 18.737 61.0972 24.4855 61.0972C 30.2333 61.0972 35.7029 58.3276 39.887 53.2987C 43.863 48.5197 46.1433 42.1943 46.1433 35.9442L 46.1433 30.4391C 47.7513 23.5506 48.0885 17.5892 48.086 13.7869C 48.0826 8.8777 47.5459 5.48589 47.0448 3.94872C 46.7787 3.13209 45.9804 2.6361 45.1552 2.71558C 45.0189 2.70346 44.8792 2.7048 44.7376 2.72479C 41.3794 3.20215 37.2596 2.379 32.8976 1.50759C 25.8303 0.0959386 17.8457 -1.49691 11.739 2.71491C 11.6846 2.70997 11.6297 2.7066 11.574 2.7066C 8.14663 2.7066 5.10366 4.06907 3.0055 6.54299C 1.06736 8.8283 2.47968e-07 11.9725 2.47968e-07 15.3964C 2.47968e-07 21.0041 2.3979 31.3675 2.78837 33.0181L 2.78837 35.9332L 2.7886 35.9332ZM 37.1049 51.0082C 33.6196 55.1976 29.1377 57.5049 24.4855 57.5049C 19.8308 57.5049 15.3417 55.1951 11.8453 51.0012C 8.38453 46.8503 6.39989 41.3582 6.39989 35.9334L 6.39989 33.779C 6.39989 29.3361 9.39885 23.2964 10.5371 21.1644C 26.7757 19.3185 37.6448 23.7794 40.1122 24.9281L 42.532 30.6003L 42.532 35.9444C 42.532 41.3721 40.554 46.8626 37.1049 51.0082ZM 11.5742 6.29915C 11.7051 6.29915 11.8326 6.28455 11.9556 6.25806C 12.4517 6.36314 12.9889 6.26232 13.4248 5.93316C 18.2935 2.25439 25.3565 3.66514 32.187 5.02986C 35.8423 5.76004 39.339 6.45834 42.5891 6.45834C 43.0392 6.45834 43.4845 6.44487 43.9251 6.41613C 44.4693 9.4579 44.9087 16.0062 43.6849 24.1058L 43.1751 22.9109C 43.0162 22.5386 42.7361 22.2308 42.3795 22.0365C 41.8608 21.7543 29.4743 15.1705 9.31534 17.688C 8.72422 17.7178 8.1595 18.0344 7.84125 18.5823C 7.72569 18.7812 6.15455 21.5107 4.79445 25.0013C 4.17714 21.6746 3.6113 17.9334 3.6113 15.3959C 3.61152 9.11211 7.61058 6.29915 11.5742 6.29915Z"/>
<path id="path1_fill" d="M 72.6214 7.9C 72.5825 7.88923 72.5433 7.8798 72.5038 7.87149L 61.7606 5.63603L 58.9206 1.35168C 58.9007 1.32137 58.8795 1.29173 58.8578 1.26277C 58.3414 0.57794 57.5553 0.125957 56.701 0.0226712C 55.8469 -0.08039 54.9745 0.171086 54.3083 0.713336C 54.2965 0.722767 54.2848 0.732646 54.2735 0.742301L 41.5001 11.6809L 28.7265 0.742527C 28.715 0.732872 28.7035 0.723217 28.692 0.713562C 28.0257 0.171312 27.1533 -0.08039 26.2993 0.0226712C 25.445 0.125957 24.6586 0.57794 24.1424 1.26277C 24.1205 1.29173 24.0995 1.32137 24.0797 1.35168L 21.2396 5.63603L 10.4965 7.87149C 10.457 7.8798 10.4177 7.88923 10.3789 7.9C 7.25509 8.77052 4.59763 10.6973 2.69358 13.4718C 0.956543 16.0028 8.54112e-07 19.0582 8.54112e-07 22.0753L 8.54112e-07 25.4525C 8.54112e-07 28.4153 2.65205 30.8259 5.91192 30.8259L 37.3889 30.8259C 37.3911 30.8259 37.3934 30.8261 37.3957 30.8261C 37.3981 30.8261 37.4006 30.8259 37.4031 30.8259L 45.5969 30.8259C 45.5994 30.8259 45.6019 30.8261 45.6044 30.8261C 45.6066 30.8261 45.6089 30.8259 45.6111 30.8259L 77.0881 30.8259C 80.348 30.8259 83 28.4155 83 25.4525L 83 22.0753C 83 19.058 82.0435 16.0028 80.3064 13.4718C 78.4028 10.6975 75.7451 8.77075 72.6214 7.9ZM 56.2254 3.81146L 58.4671 7.19295L 49.4955 19.4646L 44.1528 14.1499L 56.2254 3.81146ZM 40.3156 23.6556L 42.6846 23.6556L 43.4039 27.2335L 39.5963 27.2335L 40.3156 23.6556ZM 43.3058 19.0789C 43.3058 19.6703 42.9435 20.0628 42.7038 20.0628L 40.2962 20.0628C 40.0565 20.0628 39.6942 19.6703 39.6942 19.0789L 39.6942 18.3876L 41.4999 16.5913L 43.3055 18.3876L 43.3055 19.0789L 43.3058 19.0789ZM 26.7748 3.81146L 38.8474 14.1497L 33.5047 19.4644L 24.5331 7.19272L 26.7748 3.81146ZM 3.61107 25.4525L 3.61107 22.0753C 3.61107 17.8379 6.25093 12.8128 11.2973 11.3749L 21.5637 9.23868L 31.827 23.2775C 32.1376 23.7025 32.6195 23.9706 33.1461 24.0119C 33.1932 24.0157 33.2404 24.0173 33.2874 24.0173C 33.7643 24.0173 34.224 23.8294 34.5639 23.4912L 36.6696 21.3965C 36.765 21.5721 36.87 21.7405 36.9855 21.8999L 35.9134 27.2331L 5.91192 27.2331C 4.66467 27.2333 3.61107 26.4178 3.61107 25.4525ZM 79.3892 25.4525C 79.3892 26.4178 78.3356 27.2333 77.0885 27.2333L 47.0868 27.2333L 46.0147 21.9002C 46.1303 21.7408 46.2352 21.5724 46.3307 21.3968L 48.4363 23.4914C 48.7762 23.8296 49.236 24.0175 49.7129 24.0175C 49.7598 24.0175 49.807 24.0157 49.8542 24.0121C 50.3807 23.9711 50.8626 23.7027 51.1732 23.2777L 61.4365 9.23891L 71.703 11.3751C 76.7493 12.813 79.3892 17.8381 79.3892 22.0755L 79.3892 25.4525L 79.3892 25.4525Z"/>
</defs>
</svg>
