<svg width="165" height="35" viewBox="0 0 165 35" version="1.1" xmlns="http://www.w3.org/2000/svg" xmlns:xlink="http://www.w3.org/1999/xlink">
<title>Logo-export</title>
<desc>Created using Figma</desc>
<g id="Canvas" transform="translate(2070 -888)">
<clipPath id="clip-0" clip-rule="evenodd">
<path d="M -2070 888L -1905 888L -1905 923L -2070 923L -2070 888Z" fill="#FFFFFF"/>
</clipPath>
<g id="Logo-export" clip-path="url(#clip-0)">
<path d="M -2070 888L -1905 888L -1905 923L -2070 923L -2070 888Z" fill="#FFFFFF"/>
<g id="Logo">
<g id="Group 2">
<g id="Group 3">
<g id="Group">
<g id="Intersect">
<use xlink:href="#path0_fill" transform="matrix(0.707933 0.706279 -0.707933 0.706279 -2056.07 888)" fill="#212529"/>
</g>
<g id="Intersect">
<use xlink:href="#path1_fill" transform="matrix(-0.707933 0.706279 -0.707933 -0.706279 -2050.8 901.899)" fill="#212529"/>
</g>
</g>
<g id="Group">
<g id="Intersect">
<use xlink:href="#path2_fill" transform="matrix(-0.707933 0.706279 -0.707933 -0.706279 -2035 901.899)" fill="#212529"/>
</g>
<g id="Intersect">
<use xlink:href="#path3_fill" transform="matrix(-0.707933 -0.706279 0.707933 -0.706279 -2048.93 907.152)" fill="#212529"/>
</g>
</g>
<g id="Group">
<g id="Intersect">
<use xlink:href="#path3_fill" transform="matrix(-0.707933 -0.706279 0.707933 -0.706279 -2048.93 923)" fill="#212529"/>
</g>
<g id="Intersect">
<use xlink:href="#path4_fill" transform="matrix(0.707933 -0.706279 0.707933 0.706279 -2054.2 909.101)" fill="#212529"/>
</g>
</g>
<g id="Group">
<g id="Intersect">
<use xlink:href="#path5_fill" transform="matrix(0.707933 -0.706279 0.707933 0.706279 -2070 909.101)" fill="#212529"/>
</g>
<g id="Intersect">
<use xlink:href="#path6_fill" transform="matrix(0.707933 0.706279 -0.707933 0.706279 -2056.07 903.848)" fill="#212529"/>
</g>
</g>
</g>
<g id="Group 2">
<g id="Subtract">
<use xlink:href="#path7_fill" transform="translate(-2060.4 897.576)" fill="#007BFF"/>
</g>
<g id="Subtract">
<use xlink:href="#path8_fill" transform="matrix(6.13757e-17 1 -1 6.10893e-17 -2044.6 897.576)" fill="#007BFF"/>
</g>
<g id="Subtract">
<use xlink:href="#path9_fill" transform="matrix(-1 1.22179e-16 -1.22751e-16 -1 -2044.6 913.424)" fill="#007BFF"/>
</g>
<g id="Subtract">
<use xlink:href="#path10_fill" transform="matrix(-1.88534e-16 -1 1 -1.78984e-16 -2060.4 913.424)" fill="#007BFF"/>
</g>
</g>
</g>
<g id="swarm">
<use xlink:href="#path11_fill" transform="translate(-2027 895)" fill="#212529"/>
<use xlink:href="#path12_fill" transform="translate(-2027 895)" fill="#212529"/>
<use xlink:href="#path13_fill" transform="translate(-2027 895)" fill="#212529"/>
<use xlink:href="#path14_fill" transform="translate(-2027 895)" fill="#212529"/>
<use xlink:href="#path15_fill" transform="translate(-2027 895)" fill="#212529"/>
</g>
</g>
</g>
</g>
<defs>
<path id="path0_fill" fill-rule="evenodd" d="M 3.71889 0C 6.03326 2.62233 7.43756 6.06685 7.43762 9.83937C 7.43763 13.6118 6.03314 17.0565 3.71868 19.6788C 1.40431 17.0564 9.24605e-06 13.6119 1.46919e-09 9.83944C -5.2452e-05 6.06692 1.40444 2.62227 3.71889 0Z"/>
<path id="path1_fill" fill-rule="evenodd" d="M 3.71873 0C 6.03318 2.62227 7.43745 6.06679 7.43744 9.83926C 7.43744 13.6117 6.03309 17.0563 3.71872 19.6786C 1.40426 17.0564 -9.24453e-06 13.6118 4.56437e-11 9.83937C 9.24463e-06 6.0669 1.40435 2.62233 3.71873 0Z"/>
<path id="path2_fill" fill-rule="evenodd" d="M 3.71881 0C 6.03327 2.62227 7.43754 6.06679 7.43753 9.83926C 7.43744 13.6117 6.03309 17.0562 3.71872 19.6785C 1.40426 17.0563 -9.24453e-06 13.6118 4.56437e-11 9.83928C 9.24463e-06 6.06681 1.40435 2.62225 3.71881 0Z"/>
<path id="path3_fill" fill-rule="evenodd" d="M 3.7188 0C 1.40435 2.62227 -9.24453e-06 6.06687 4.56409e-11 9.83935C 9.24463e-06 13.6118 1.40435 17.0564 3.71881 19.6786C 6.03327 17.0564 7.43758 13.6119 7.43757 9.83941C 7.43752 6.0669 6.03318 2.62233 3.7188 0Z"/>
<path id="path4_fill" fill-rule="evenodd" d="M 3.71873 0C 1.40435 2.62233 9.24605e-06 6.0669 1.46928e-09 9.83937C -5.2452e-05 13.6119 1.40435 17.0564 3.7188 19.6787C 6.03326 17.0565 7.43761 13.6119 7.43762 9.83944C 7.43767 6.06692 6.03318 2.62227 3.71873 0Z"/>
<path id="path5_fill" fill-rule="evenodd" d="M 3.71873 0C 1.40435 2.62233 9.24605e-06 6.0669 1.46919e-09 9.83937C -5.2452e-05 13.6119 1.40444 17.0565 3.71889 19.6788C 6.03326 17.0565 7.43761 13.6119 7.43762 9.83944C 7.43767 6.06692 6.03318 2.62227 3.71873 0Z"/>
<path id="path6_fill" fill-rule="evenodd" d="M 3.71889 0C 6.03326 2.62233 7.43761 6.0669 7.43766 9.83941C 7.43767 13.6119 6.03318 17.0565 3.71873 19.6788C 1.40435 17.0565 9.24605e-06 13.6119 1.46919e-09 9.83944C -5.2452e-05 6.06692 1.40444 2.62227 3.71889 0Z"/>
<path id="path7_fill" fill-rule="evenodd" d="M 0 4.72058C 2.13477 6.05518 4.53516 6.79816 6.96558 6.94934C 6.81396 4.52466 6.06934 2.12988 4.73169 0C 4.14575 0.932861 3.44604 1.815 2.63257 2.62653C 1.81909 3.43805 0.935059 4.13605 0 4.72058Z"/>
<path id="path8_fill" fill-rule="evenodd" d="M 0 4.73169C 2.12994 6.06934 4.52466 6.81396 6.9494 6.96558C 6.79828 4.53516 6.05536 2.13489 4.7207 0C 4.13617 0.935059 3.43811 1.81921 2.62653 2.63269C 1.81494 3.44604 0.932861 4.14575 0 4.73169Z"/>
<path id="path9_fill" fill-rule="evenodd" d="M 0 4.72058C 2.13489 6.05518 4.53516 6.79803 6.96558 6.94922C 6.81396 4.52454 6.06934 2.12988 4.73169 0C 4.14575 0.932861 3.44604 1.81488 2.63269 2.6264C 1.81921 3.43799 0.935059 4.13605 0 4.72058Z"/>
<path id="path10_fill" fill-rule="evenodd" d="M 0 4.73193C 2.12994 6.06982 4.52472 6.81445 6.94952 6.96606C 6.7984 4.53564 6.05548 2.13501 4.72083 0C 4.13629 0.935059 3.43823 1.81934 2.62665 2.63281C 1.81506 3.44629 0.932922 4.146 0 4.73193Z"/>
<path id="path11_fill" d="M 0 18.3242C 0.958857 20.3883 3.00164 23 7.54579 23C 11.7564 23 14.9248 20.3883 14.9248 16.5128C 14.9248 8.88828 4.00219 10.7418 4.00219 5.81319C 4.00219 3.91758 5.58638 2.78022 7.58748 2.78022C 10.3807 2.78022 11.5063 4.42308 12.0899 5.60256L 14.5079 4.21245C 13.9243 2.5696 11.8398 0 7.79593 0C 3.87712 0 0.833789 2.2326 0.833789 5.93956C 0.833789 13.3535 11.7147 11.6264 11.7147 16.6813C 11.7147 18.9139 9.8804 20.1777 7.71255 20.1777C 4.7526 20.1777 3.21009 18.5348 2.29292 16.8077L 0 18.3242Z"/>
<path id="path12_fill" d="M 38.9376 22.4524L 42.5646 22.4524L 49.9019 0.547619L 46.3166 0.547619L 40.6052 18.5769C 40.6052 18.5769 40.5635 18.4927 34.8104 0.547619L 31.5586 0.547619C 25.7637 18.4927 25.7221 18.5769 25.7221 18.5769L 20.0523 0.547619L 16.467 0.547619L 23.7627 22.4524L 27.3896 22.4524L 33.1845 5.05495L 38.9376 22.4524Z"/>
<path id="path13_fill" d="M 51.6281 15.7125C 51.6281 19.967 55.13 23 59.8826 23C 62.8009 23 64.6352 21.9048 65.7608 20.5989L 66.1361 22.4524L 68.9709 22.4524L 68.9709 8.00366C 68.9709 3.32784 66.6363 0 60.7164 0C 57.0478 0 54.1712 1.47436 52.7121 2.4011L 54.0461 4.84432C 55.5886 3.91758 57.7565 2.94872 60.4246 2.94872C 63.6347 2.94872 65.6775 4.71795 65.6775 7.79304L 65.6775 10.489C 64.802 9.56227 62.7175 8.50916 59.966 8.50916C 55.0884 8.50916 51.6281 11.5421 51.6281 15.7125ZM 54.9633 15.6703C 54.9633 13.1007 57.0895 11.163 60.3829 11.163C 63.6347 11.163 65.8025 12.9322 65.8025 15.6703C 65.8025 18.3242 63.593 20.2198 60.4246 20.2198C 57.0895 20.2198 54.9633 18.1978 54.9633 15.6703Z"/>
<path id="path14_fill" d="M 84.0111 0C 80.7176 0 78.2996 2.02198 77.5492 4.21245L 77.5492 0.547619L 74.2974 0.547619L 74.2974 22.4524L 77.5909 22.4524L 77.5909 11.9634C 77.5909 7.28755 79.05 3.32784 84.0111 3.32784L 84.0111 0Z"/>
<path id="path15_fill" d="M 118 8.25641C 118 3.45421 115.415 0 110.579 0C 107.494 0 104.91 1.39011 103.617 4.00183C 102.617 1.60073 100.324 0 97.0719 0C 94.0703 0 91.7773 1.81136 90.9436 3.70696C 90.9436 3.70696 90.9436 2.5696 90.9436 0.547619L 87.6918 0.547619L 87.6918 22.4524L 90.9852 22.4524L 90.9852 9.18315C 90.9852 5.47619 93.3615 3.03297 96.2381 3.03297C 99.2814 3.03297 101.199 5.13919 101.199 8.63553L 101.199 22.4524L 104.493 22.4524L 104.493 9.30952C 104.493 5.22344 106.786 3.03297 109.829 3.03297C 113.039 3.03297 114.707 5.1392 114.707 9.2674L 114.707 22.4524L 118 22.4524L 118 8.25641Z"/>
</defs>
</svg>
